<?xml version="1.0" encoding="UTF-8" standalone="no"?>
<svg
   width="100%"
   height="100%"
   viewBox="0 0 6250 4167"
   version="1.1"
   xml:space="preserve"
   style="fill-rule:evenodd;clip-rule:evenodd;stroke-linecap:round;stroke-linejoin:round;stroke-miterlimit:1.5;"
   id="svg16"
   sodipodi:docname="stat-9-t.svg"
   inkscape:version="1.2.2 (b0a8486541, 2022-12-01)"
   xmlns:inkscape="http://www.inkscape.org/namespaces/inkscape"
   xmlns:sodipodi="http://sodipodi.sourceforge.net/DTD/sodipodi-0.dtd"
   xmlns="http://www.w3.org/2000/svg"
   xmlns:svg="http://www.w3.org/2000/svg"><defs
     id="defs20" /><sodipodi:namedview
     id="namedview18"
     pagecolor="#ffffff"
     bordercolor="#000000"
     borderopacity="0.25"
     inkscape:showpageshadow="2"
     inkscape:pageopacity="0.0"
     inkscape:pagecheckerboard="true"
     inkscape:deskcolor="#d1d1d1"
     showgrid="false"
     inkscape:zoom="0.09632"
     inkscape:cx="3285.9219"
     inkscape:cy="2413.8289"
     inkscape:window-width="1278"
     inkscape:window-height="1360"
     inkscape:window-x="-7"
     inkscape:window-y="0"
     inkscape:window-maximized="0"
     inkscape:current-layer="svg16" /><path
     d="M1250,416.667l-1041.67,-0l0,3541.67l5833.33,0l-0,-3541.67l-1041.67,-0"
     style="fill:none;stroke:#28aae1;stroke-width:208.33px;"
     id="path2" /><path
     d="m 1981.3501,2009.7759 c 0,315.752 197.793,471.84 589.909,471.84 h 868.424 v 378.757 c 0,128.571 -79.909,194.593 -243.195,194.593 h -1076.34 v 416.233 h 1319.53 c 461.517,0 694.01,-183.837 694.01,-555.228 v -1264.17 c 0,-315.751 -197.793,-471.837 -589.908,-471.837 h -972.526 c -392.116,0 -589.909,156.086 -589.909,471.837 v 357.972 z m 694.011,-41.705 v -274.561 c 0,-66.034 41.69,-97.311 121.596,-97.311 h 521.127 c 79.906,0 121.599,31.277 121.599,97.311 v 371.873 h -642.726 c -79.906,0 -121.596,-31.279 -121.596,-97.312 z"
     style="clip-rule:evenodd;fill:#ffffff;fill-rule:nonzero;stroke-linecap:round;stroke-linejoin:round;stroke-miterlimit:1.5"
     id="path915" /><g
     id="g14"><path
       d="M1966.72,758.281l408.317,0c94.108,0 141.579,-37.461 141.579,-113.239l-0,-110.918c-0,-75.778 -47.471,-113.239 -141.579,-113.239l-212.574,0c-19.176,0 -29.181,-7.507 -29.181,-23.355l0,-65.894c0,-15.848 10.005,-23.355 29.181,-23.355l312.512,0l-0,-99.896l-366.677,0c-94.108,0 -141.578,37.461 -141.578,113.241l-0,85.914c-0,75.78 47.47,113.241 141.578,113.241l212.576,0c19.176,0 29.179,7.505 29.179,23.351l0,90.902c0,15.846 -10.003,23.351 -29.179,23.351l-354.154,0l-0,99.896Z"
       style="fill:#fff;fill-rule:nonzero;"
       id="path6" /><path
       d="M2558.39,308.281l225,0l0,450l166.563,0l-0,-450l225,0l-0,-99.896l-616.563,0l0,99.896Z"
       style="fill:#fff;fill-rule:nonzero;"
       id="path8" /><path
       d="M3095.83,758.281l163.334,0l50,-116.666l256.666,-0l50,116.666l163.334,0l-237.5,-549.896l-208.334,0l-237.5,549.896Zm256.667,-216.562l85,-195.834l85,195.834l-170,-0Z"
       style="fill:#fff;fill-rule:nonzero;"
       id="path10" /><path
       d="M3700.05,308.281l225,0l0,450l166.563,0l-0,-450l225,0l-0,-99.896l-616.563,0l0,99.896Z"
       style="fill:#fff;fill-rule:nonzero;"
       id="path12" /></g></svg>
